<?xml version="1.0" encoding="UTF-8" standalone="no"?>
<svg
   xmlns:dc="http://purl.org/dc/elements/1.1/"
   xmlns:cc="http://creativecommons.org/ns#"
   xmlns:rdf="http://www.w3.org/1999/02/22-rdf-syntax-ns#"
   xmlns:svg="http://www.w3.org/2000/svg"
   xmlns="http://www.w3.org/2000/svg"
   viewBox="0 0 182.606 93.9916"
   height="93.9916"
   width="182.606"
   xml:space="preserve"
   id="svg10"
   version="1.1"><metadata
     id="metadata16"><rdf:RDF><cc:Work
         rdf:about=""><dc:format>image/svg+xml</dc:format><dc:type
           rdf:resource="http://purl.org/dc/dcmitype/StillImage" /><dc:title></dc:title></cc:Work></rdf:RDF></metadata><defs
     id="defs14" /><g
     transform="matrix(1.3333333,0,0,-1.3333333,-96.688784,247.35345)"
     id="g18"><g
       transform="translate(-185.67171,-563.40511)"
       id="g36"><path
         d="m 324.0116,721.5089 c 2.2822,3.3633 4.805,6.4862 7.0872,9.8495 -9.97,0.0618 -20.1798,0.4082 -30.1501,-0.2001 -6.9143,-0.5499 -14.0885,-2.4092 -20.8812,-6.7927 -5.0524,-3.2607 -8.363,-6.7785 -11.7229,-11.5098 -3.6771,-5.1783 -5.6603,-8.6079 -9.9182,-14.4099 -0.4079,-0.7239 -0.1876,-1.1786 0.9009,-1.2611 3.1833,0 6.3663,0 9.5496,0 0.8805,-0.0814 1.9352,0.5335 3.2431,2.162 3.6939,6.8167 8.3583,13.3101 17.8379,18.1981 3.0132,1.6926 6.772,2.8602 9.915,2.8831 -3.0027,-4.5045 -6.6645,-9.4484 -9.6673,-13.9529 -1.1412,0 -2.7212,-0.0788 -3.8622,-0.0788 l -7.1963,-9.5718 c 13.9337,0 27.0403,0 40.974,0 2.7728,-0.0848 5.9933,1.3728 8.136,4.0201 4.8648,7.0268 9.8084,13.8175 14.6732,20.8443 3.0631,-0.1199 6.327,-0.1732 9.3901,-0.2934 -3.1745,-4.7614 -6.154,-8.89 -9.2707,-13.4646 -1.3814,-2.0267 -2.374,-3.2201 -1.9222,-5.8955 0.3895,-2.3062 2.1481,-3.5793 4.4178,-4.4487 4.6429,-0.8144 9.3263,-0.8892 13.7815,-0.7622 2.4023,3.2431 4.8047,6.4862 7.2071,9.7294 -3.784,0.1201 -7.7687,-0.0947 -11.5524,0.0255 3.3033,4.8648 6.8074,10.0647 10.1109,14.9295 3.2432,0 6.4866,0 9.7297,0 2.3422,3.2431 4.6845,6.4862 7.0271,9.7296 -10.6308,0.1202 -21.2613,0.2401 -31.8918,0.3603 1.2342,1.6914 2.4956,3.3642 3.7032,5.0749 1.8057,2.5582 2.1674,2.2527 5.7484,2.3125 l 11.8839,0.1987 c 2.3043,2.8805 3.8764,5.6097 6.0259,8.4512 0.847,1.4967 0.6775,1.1545 -0.8818,1.26 -7.325,0 -14.65,0 -21.975,0 -4.2574,-0.4292 -7.2723,-2.3907 -9.9392,-6.4865 -7.2496,-10.5146 -14.8305,-21.0294 -22.0799,-31.544 -1.9315,-2.8012 -3.0892,-4.225 -6.9236,-4.4308 -1.982,0 -3.9402,0.1191 -5.9221,0.1191 3.3633,4.985 6.7266,9.97 10.0899,14.955 1.4414,0 2.8831,0 4.3245,0 z m -27.1902,-14.9434 10.5344,14.9034 h 5.7458 l -10.1151,-14.9632 z"
         style="fill:#ed1c24;fill-opacity:1;fill-rule:evenodd;stroke:none"
         id="path38" /><path
         d="m 385.035,748.9202 c 2.7479,0 4.9757,-2.2278 4.9757,-4.9757 0,-2.7482 -2.2278,-4.9759 -4.9757,-4.9759 -2.7479,0 -4.9756,2.2277 -4.9756,4.9759 0,2.7479 2.2277,4.9757 4.9756,4.9757"
         style="fill:#00a650;fill-opacity:1;fill-rule:evenodd;stroke:none"
         id="path40" /><path
         d="m 260.1969,683.4549 h 0.1591 c 0.7191,0 1.2699,0.2704 1.6497,0.8093 0.3799,0.5411 0.5698,1.3249 0.5698,2.3525 0,1.1041 -0.1854,1.923 -0.553,2.4596 -0.368,0.534 -0.9329,0.8022 -1.6926,0.8022 h -0.133 z m -2.0086,-1.8802 v 10.1557 h 1.7425 c 1.567,0 2.7371,-0.4204 3.5087,-1.2583 0.7719,-0.8405 1.1585,-2.1152 1.1585,-3.8268 0,-1.0301 -0.1423,-1.8921 -0.4249,-2.5878 -0.2823,-0.6953 -0.724,-1.2699 -1.3269,-1.7257 -0.3586,-0.273 -0.7622,-0.4677 -1.2132,-0.5839 -0.4533,-0.1162 -1.0919,-0.1732 -1.9179,-0.1732 z m 11.2329,3.9883 c -0.0145,0.4984 -0.1024,0.8663 -0.2685,1.1061 -0.1641,0.2398 -0.4107,0.3609 -0.7384,0.3609 -0.3251,0 -0.572,-0.1259 -0.7455,-0.3776 -0.1709,-0.2515 -0.2563,-0.6171 -0.2563,-1.0967 l 2.0087,0.007 z m -2.0087,-1.0828 v -0.0547 c 0,-0.5103 0.0902,-0.8997 0.2707,-1.1724 0.1803,-0.273 0.4394,-0.4111 0.7714,-0.4111 0.2137,0 0.3943,0.0641 0.5462,0.1948 0.1494,0.1284 0.273,0.3254 0.3657,0.5887 h 1.6214 c -0.1474,-0.6814 -0.4558,-1.2155 -0.9213,-1.6021 -0.4677,-0.3847 -1.0375,-0.5768 -1.7164,-0.5768 -0.8475,0 -1.5216,0.318 -2.0225,0.9541 -0.5009,0.6361 -0.7526,1.4933 -0.7526,2.5756 0,1.0944 0.2492,1.9587 0.7503,2.5948 0.5009,0.6364 1.175,0.9544 2.0223,0.9544 0.9,0 1.5789,-0.3135 2.037,-0.9402 0.4583,-0.6268 0.6885,-1.5523 0.6885,-2.78 v -0.3251 z m 8.0422,0.6148 c 0,0.6531 -0.0666,1.1251 -0.1996,1.4148 -0.1306,0.2897 -0.3463,0.4345 -0.6434,0.4345 -0.2753,0 -0.4723,-0.1471 -0.5956,-0.439 -0.1236,-0.292 -0.1854,-0.7668 -0.1854,-1.4244 0,-0.6529 0.0689,-1.1418 0.2067,-1.4673 0.1352,-0.3251 0.3441,-0.4864 0.6219,-0.4864 0.2849,0 0.4867,0.1494 0.61,0.4485 0.1236,0.299 0.1854,0.805 0.1854,1.5193 z m 1.8233,-3.5203 h -1.8233 v 0.9944 c -0.1806,-0.3799 -0.3966,-0.6645 -0.6505,-0.8547 -0.2518,-0.1873 -0.5437,-0.2823 -0.8714,-0.2823 -0.6268,0 -1.1109,0.3061 -1.4528,0.9213 -0.3444,0.6148 -0.5153,1.4881 -0.5153,2.6209 0,1.1177 0.176,1.9794 0.5295,2.5849 0.3515,0.6055 0.8498,0.9093 1.4933,0.9093 0.292,0 0.5601,-0.0856 0.8025,-0.2565 0.2443,-0.1732 0.4651,-0.432 0.6647,-0.7809 v 4.926 h 1.8233 z m 1.5037,8.6434 c 0,0.3112 0.1043,0.5723 0.3113,0.7835 0.2063,0.2112 0.4651,0.3155 0.7758,0.3155 0.2971,0 0.5508,-0.1066 0.7623,-0.3203 0.2111,-0.2138 0.3157,-0.4726 0.3157,-0.7787 0,-0.2968 -0.1046,-0.5485 -0.3135,-0.7549 -0.2089,-0.2063 -0.4629,-0.3109 -0.7645,-0.3109 -0.3107,0 -0.5695,0.102 -0.7758,0.3038 -0.207,0.2016 -0.3113,0.4558 -0.3113,0.762 z m 0.1423,-8.6434 v 6.8224 h 1.8803 v -6.8224 z m 7.0832,4.8855 c -0.1496,0.1091 -0.2922,0.1876 -0.432,0.2372 -0.14,0.0499 -0.2803,0.076 -0.4178,0.076 -0.3634,0 -0.6528,-0.1567 -0.8665,-0.47 -0.2138,-0.3109 -0.3206,-0.7358 -0.3206,-1.2676 0,-0.5601 0.1091,-0.9921 0.3254,-1.296 0.216,-0.3042 0.5221,-0.4558 0.9164,-0.4558 0.1494,0 0.2872,0.028 0.4176,0.0876 0.1306,0.0572 0.2562,0.1474 0.3775,0.2681 v -1.7969 c -0.1947,-0.1352 -0.4011,-0.2352 -0.6148,-0.2993 -0.2163,-0.0641 -0.4416,-0.0969 -0.6789,-0.0969 -0.7977,0 -1.4315,0.318 -1.904,0.9541 -0.47,0.6361 -0.705,1.5001 -0.705,2.5948 0,1.0823 0.2373,1.9395 0.7098,2.5756 0.4725,0.6364 1.1061,0.9544 1.8992,0.9544 0.2276,0 0.4462,-0.0215 0.6596,-0.0663 0.2138,-0.0454 0.4252,-0.1094 0.6341,-0.1996 z m 4.4195,-1.3652 c 0,0.6222 -0.0737,1.0826 -0.2208,1.3842 -0.1448,0.3016 -0.3727,0.451 -0.6792,0.451 -0.2729,0 -0.4725,-0.1449 -0.5955,-0.4346 -0.1236,-0.2894 -0.1854,-0.7616 -0.1854,-1.4147 0,-0.648 0.0689,-1.1348 0.2066,-1.4554 0.1353,-0.3228 0.3442,-0.4844 0.6245,-0.4844 0.2965,0 0.5125,0.1548 0.648,0.4655 0.1352,0.3109 0.2018,0.807 0.2018,1.4884 z m 1.766,-3.5203 h -1.766 v 1.0088 c -0.1995,-0.375 -0.4274,-0.6602 -0.6862,-0.8498 -0.2563,-0.1922 -0.5414,-0.2871 -0.8499,-0.2871 -0.6502,0 -1.1466,0.3013 -1.4932,0.9042 -0.3442,0.6032 -0.5177,1.4791 -0.5177,2.6235 0,1.1131 0.1783,1.9749 0.5321,2.5823 0.356,0.6081 0.8521,0.9119 1.4908,0.9119 0.3013,0 0.5768,-0.0901 0.826,-0.2704 0.2469,-0.1831 0.4796,-0.4632 0.6981,-0.843 v 1.042 h 1.766 z m 1.789,0 v 5.3555 h -0.7407 v 1.4669 h 0.7407 v 1.9658 h 1.8802 v -1.9658 h 0.7407 v -1.4669 h -0.7407 v -5.3555 z m 7.1399,3.9883 c -0.0142,0.4984 -0.1024,0.8663 -0.2682,1.1061 -0.1641,0.2398 -0.411,0.3609 -0.7384,0.3609 -0.3254,0 -0.572,-0.1259 -0.7455,-0.3776 -0.1709,-0.2515 -0.2563,-0.6171 -0.2563,-1.0967 l 2.0084,0.007 z m -2.0084,-1.0828 v -0.0547 c 0,-0.5103 0.0902,-0.8997 0.2705,-1.1724 0.1805,-0.273 0.4393,-0.4111 0.7715,-0.4111 0.2138,0 0.3941,0.0641 0.5463,0.1948 0.1494,0.1284 0.273,0.3254 0.3656,0.5887 h 1.6212 c -0.1471,-0.6814 -0.4555,-1.2155 -0.921,-1.6021 -0.4677,-0.3847 -1.0375,-0.5768 -1.7164,-0.5768 -0.8475,0 -1.5219,0.318 -2.0225,0.9541 -0.5009,0.6361 -0.7526,1.4933 -0.7526,2.5756 0,1.0944 0.2492,1.9587 0.7501,2.5948 0.5011,0.6364 1.1752,0.9544 2.0225,0.9544 0.9,0 1.5789,-0.3135 2.037,-0.9402 0.458,-0.6268 0.6882,-1.5523 0.6882,-2.78 v -0.3251 z m 8.0419,0.6148 c 0,0.6531 -0.0663,1.1251 -0.1993,1.4148 -0.1306,0.2897 -0.3466,0.4345 -0.6434,0.4345 -0.2755,0 -0.4726,-0.1471 -0.5959,-0.439 -0.1236,-0.292 -0.1851,-0.7668 -0.1851,-1.4244 0,-0.6529 0.0689,-1.1418 0.2064,-1.4673 0.1355,-0.3251 0.3444,-0.4864 0.6222,-0.4864 0.2849,0 0.4867,0.1494 0.61,0.4485 0.1236,0.299 0.1851,0.805 0.1851,1.5193 z m 1.8233,-3.5203 h -1.8233 v 0.9944 c -0.1803,-0.3799 -0.3965,-0.6645 -0.6502,-0.8547 -0.2518,-0.1873 -0.5437,-0.2823 -0.8714,-0.2823 -0.6268,0 -1.1109,0.3061 -1.4528,0.9213 -0.3444,0.6148 -0.5153,1.4881 -0.5153,2.6209 0,1.1177 0.1757,1.9794 0.5295,2.5849 0.3512,0.6055 0.8498,0.9093 1.4933,0.9093 0.292,0 0.5601,-0.0856 0.8025,-0.2565 0.2443,-0.1732 0.4651,-0.432 0.6644,-0.7809 v 4.926 h 1.8233 z m 4.8396,0 v 10.1557 h 4.3869 v -1.8805 h -2.4214 v -2.1079 h 2.2079 v -1.8657 h -2.2079 v -4.3016 z m 5.2667,0 v 6.8224 h 1.7518 v -1.2081 c 0.1542,0.4461 0.3586,0.7787 0.6126,0.9992 0.2565,0.2208 0.5649,0.3325 0.9258,0.3373 v -1.7946 h -0.1259 c -0.4986,0 -0.8356,-0.1165 -1.0159,-0.3515 -0.1783,-0.235 -0.2684,-0.7668 -0.2684,-1.5976 v -3.2071 z m 7.7573,3.9883 c -0.0144,0.4984 -0.1023,0.8663 -0.2684,1.1061 -0.1642,0.2398 -0.411,0.3609 -0.7385,0.3609 -0.3251,0 -0.572,-0.1259 -0.7455,-0.3776 -0.1709,-0.2515 -0.2562,-0.6171 -0.2562,-1.0967 l 2.0086,0.007 z m -2.0086,-1.0828 v -0.0547 c 0,-0.5103 0.0901,-0.8997 0.2707,-1.1724 0.1803,-0.273 0.4391,-0.4111 0.7713,-0.4111 0.2137,0 0.3943,0.0641 0.5462,0.1948 0.1494,0.1284 0.273,0.3254 0.3657,0.5887 h 1.6211 c -0.1471,-0.6814 -0.4555,-1.2155 -0.9209,-1.6021 -0.4678,-0.3847 -1.0375,-0.5768 -1.7164,-0.5768 -0.8476,0 -1.5219,0.318 -2.0225,0.9541 -0.5009,0.6361 -0.7526,1.4933 -0.7526,2.5756 0,1.0944 0.2491,1.9587 0.7503,2.5948 0.5009,0.6364 1.175,0.9544 2.0222,0.9544 0.9,0 1.5789,-0.3135 2.037,-0.9402 0.4584,-0.6268 0.6883,-1.5523 0.6883,-2.78 v -0.3251 z m 4.7231,5.7379 c 0,0.3112 0.1046,0.5723 0.3112,0.7835 0.2064,0.2112 0.4652,0.3155 0.7761,0.3155 0.2968,0 0.5508,-0.1066 0.762,-0.3203 0.2115,-0.2138 0.3158,-0.4726 0.3158,-0.7787 0,-0.2968 -0.1043,-0.5485 -0.3133,-0.7549 -0.2089,-0.2063 -0.4631,-0.3109 -0.7645,-0.3109 -0.3109,0 -0.5697,0.102 -0.7761,0.3038 -0.2066,0.2016 -0.3112,0.4558 -0.3112,0.762 z m 0.1426,-8.6434 v 6.8224 h 1.8802 v -6.8224 z m 6.7269,6.8224 h 1.8232 v -6.3074 c 0,-1.4601 -0.1947,-2.4355 -0.5817,-2.927 -0.3869,-0.4913 -1.0873,-0.7362 -2.0987,-0.7362 -0.7977,0 -1.4171,0.2067 -1.8562,0.6222 -0.4416,0.413 -0.6624,0.9922 -0.6624,1.7377 v 0.1043 h 1.5953 c 0,-0.3274 0.076,-0.5721 0.2256,-0.7359 0.1517,-0.1636 0.3751,-0.2469 0.6716,-0.2469 0.3254,0 0.5533,0.0856 0.6862,0.2543 0.1304,0.1684 0.1971,0.4651 0.1971,0.8946 v 1.4153 c -0.2183,-0.3206 -0.4513,-0.5629 -0.6982,-0.7242 -0.2492,-0.1639 -0.5103,-0.2447 -0.7832,-0.2447 -0.648,0 -1.1444,0.2994 -1.4908,0.8975 -0.3444,0.5981 -0.5176,1.4647 -0.5176,2.5948 0,1.1084 0.1758,1.9656 0.5295,2.5685 0.3512,0.6029 0.8499,0.9045 1.493,0.9045 0.3065,0 0.582,-0.0927 0.8238,-0.2755 0.2449,-0.1825 0.4584,-0.4629 0.6435,-0.8379 z m 0,-3.3021 c 0,0.6625 -0.0641,1.1373 -0.1948,1.4222 -0.1304,0.2848 -0.3467,0.4271 -0.648,0.4271 -0.2755,0 -0.4725,-0.1471 -0.5958,-0.439 -0.1236,-0.292 -0.1851,-0.7668 -0.1851,-1.4244 0,-0.6529 0.0688,-1.1418 0.2063,-1.4673 0.1355,-0.3251 0.3444,-0.4864 0.6222,-0.4864 0.2846,0 0.4867,0.1494 0.6101,0.4485 0.1235,0.299 0.1851,0.805 0.1851,1.5193 z m 6.5749,-3.5203 v 4.1329 c 0,0.3895 -0.0479,0.6573 -0.1403,0.8047 -0.0927,0.1449 -0.2495,0.2186 -0.4725,0.2186 -0.2418,0 -0.4153,-0.0856 -0.5222,-0.2565 -0.1068,-0.1735 -0.1616,-0.4558 -0.1616,-0.8499 v -4.0498 h -1.8799 v 10.7824 h 1.8799 v -4.786 c 0.2566,0.3064 0.527,0.5318 0.8119,0.6792 0.2852,0.1448 0.5984,0.2182 0.938,0.2182 0.5315,0 0.9045,-0.1474 1.1134,-0.4439 0.2087,-0.297 0.3133,-0.8926 0.3133,-1.7878 v -4.6621 z m 3.5929,0 v 5.3555 h -0.7407 v 1.4669 h 0.7407 v 1.9658 h 1.88 v -1.9658 h 0.7409 v -1.4669 h -0.7409 v -5.3555 z m 12.1275,0.1091 c -0.1945,-0.0782 -0.3918,-0.1378 -0.5888,-0.1783 -0.197,-0.0402 -0.394,-0.0589 -0.5935,-0.0589 -1.296,0 -2.3477,0.4699 -3.1573,1.4122 -0.8095,0.9399 -1.2155,2.1747 -1.2155,3.6986 0,1.586 0.3966,2.8678 1.1872,3.8412 0.7903,0.9732 1.8255,1.4599 3.1002,1.4599 0.2376,0 0.4607,-0.019 0.6696,-0.0593 0.2089,-0.0379 0.4085,-0.0997 0.5981,-0.1828 v -1.8947 c -0.1945,0.0786 -0.3844,0.1355 -0.5675,0.1735 -0.1828,0.0354 -0.3631,0.0547 -0.5386,0.0547 -0.6792,0 -1.2274,-0.299 -1.6498,-0.8974 -0.4226,-0.5981 -0.6341,-1.3913 -0.6341,-2.3786 0,-0.9499 0.216,-1.7189 0.6506,-2.3077 0.4343,-0.5887 0.9924,-0.8832 1.6738,-0.8832 0.173,0 0.3487,0.0218 0.5267,0.062 0.1783,0.0426 0.3586,0.1021 0.5389,0.1803 z m 3.8137,1.4148 c 0.3325,0 0.5913,0.1661 0.7739,0.4963 0.1828,0.332 0.2755,0.8045 0.2755,1.4174 0,0.6049 -0.0927,1.0751 -0.2755,1.4074 -0.1826,0.3299 -0.4414,0.496 -0.7739,0.496 -0.3345,0 -0.5933,-0.1635 -0.7738,-0.4935 -0.1803,-0.3302 -0.2705,-0.8002 -0.2705,-1.4099 0,-0.6174 0.0902,-1.09 0.2705,-1.4199 0.1805,-0.33 0.4393,-0.4938 0.7738,-0.4938 z m 2.844,1.8969 c 0,-1.0848 -0.2585,-1.9491 -0.7761,-2.5877 -0.5176,-0.6409 -1.2059,-0.9612 -2.0679,-0.9612 -0.8685,0 -1.557,0.318 -2.0701,0.9566 -0.5128,0.6384 -0.7691,1.5024 -0.7691,2.5923 0,1.0823 0.2563,1.9395 0.7691,2.5756 0.5131,0.6364 1.2016,0.9544 2.0701,0.9544 0.8666,0 1.5574,-0.318 2.0727,-0.9567 0.5151,-0.6386 0.7713,-1.4955 0.7713,-2.5733 z m 1.2005,-3.4208 v 6.8224 h 1.7521 v -1.2081 c 0.1542,0.4461 0.3586,0.7787 0.6123,0.9992 0.2565,0.2208 0.5649,0.3325 0.9261,0.3373 v -1.7946 h -0.1262 c -0.4983,0 -0.8354,-0.1165 -1.0159,-0.3515 -0.178,-0.235 -0.2682,-0.7668 -0.2682,-1.5976 v -3.2071 z m 4.2817,0 v 6.8224 h 1.7518 v -1.2081 c 0.1542,0.4461 0.3586,0.7787 0.6126,0.9992 0.2565,0.2208 0.565,0.3325 0.9261,0.3373 v -1.7946 h -0.1262 c -0.4986,0 -0.8356,-0.1165 -1.0159,-0.3515 -0.1783,-0.235 -0.2684,-0.7668 -0.2684,-1.5976 v -3.2071 z m 4.1817,8.6434 c 0,0.3112 0.1046,0.5723 0.3112,0.7835 0.2067,0.2112 0.4652,0.3155 0.7762,0.3155 0.2968,0 0.5507,-0.1066 0.7619,-0.3203 0.2115,-0.2138 0.3158,-0.4726 0.3158,-0.7787 0,-0.2968 -0.1043,-0.5485 -0.3132,-0.7549 -0.2089,-0.2063 -0.4629,-0.3109 -0.7645,-0.3109 -0.311,0 -0.5695,0.102 -0.7762,0.3038 -0.2066,0.2016 -0.3112,0.4558 -0.3112,0.762 z m 0.1426,-8.6434 v 6.8224 h 1.8802 v -6.8224 z m 6.7269,3.5203 c 0,0.6531 -0.0666,1.1251 -0.1996,1.4148 -0.1304,0.2897 -0.3464,0.4345 -0.6432,0.4345 -0.2755,0 -0.4725,-0.1471 -0.5958,-0.439 -0.1236,-0.292 -0.1851,-0.7668 -0.1851,-1.4244 0,-0.6529 0.0689,-1.1418 0.2064,-1.4673 0.1355,-0.3251 0.3444,-0.4864 0.6222,-0.4864 0.2846,0 0.4867,0.1494 0.61,0.4485 0.1236,0.299 0.1851,0.805 0.1851,1.5193 z m 1.8232,-3.5203 h -1.8232 v 0.9944 c -0.1803,-0.3799 -0.3966,-0.6645 -0.6503,-0.8547 -0.2517,-0.1873 -0.544,-0.2823 -0.8714,-0.2823 -0.6267,0 -1.1111,0.3061 -1.453,0.9213 -0.3441,0.6148 -0.5151,1.4881 -0.5151,2.6209 0,1.1177 0.1758,1.9794 0.5296,2.5849 0.3512,0.6055 0.8498,0.9093 1.493,0.9093 0.2922,0 0.5604,-0.0856 0.8025,-0.2565 0.2446,-0.1732 0.4651,-0.432 0.6647,-0.7809 v 4.926 h 1.8232 z m 4.0726,1.5239 c 0.3325,0 0.591,0.1661 0.7738,0.4963 0.1829,0.332 0.2753,0.8045 0.2753,1.4174 0,0.6049 -0.0924,1.0751 -0.2753,1.4074 -0.1828,0.3299 -0.4413,0.496 -0.7738,0.496 -0.3348,0 -0.5933,-0.1635 -0.7742,-0.4935 -0.1803,-0.3302 -0.2704,-0.8002 -0.2704,-1.4099 0,-0.6174 0.0901,-1.09 0.2704,-1.4199 0.1809,-0.33 0.4394,-0.4938 0.7742,-0.4938 z m 2.844,1.8969 c 0,-1.0848 -0.2588,-1.9491 -0.7762,-2.5877 -0.5176,-0.6409 -1.2058,-0.9612 -2.0678,-0.9612 -0.8689,0 -1.5574,0.318 -2.0702,0.9566 -0.5128,0.6384 -0.769,1.5024 -0.769,2.5923 0,1.0823 0.2562,1.9395 0.769,2.5756 0.5128,0.6364 1.2013,0.9544 2.0702,0.9544 0.8665,0 1.557,-0.318 2.0724,-0.9567 0.5153,-0.6386 0.7716,-1.4955 0.7716,-2.5733 z m 1.2004,-3.4208 v 6.8224 h 1.7518 v -1.2081 c 0.1542,0.4461 0.3586,0.7787 0.6123,0.9992 0.2568,0.2208 0.5653,0.3325 0.9261,0.3373 v -1.7946 h -0.1259 c -0.4986,0 -0.8356,-0.1165 -1.0159,-0.3515 -0.1783,-0.235 -0.2684,-0.7668 -0.2684,-1.5976 v -3.2071 z"
         style="fill:#231f20;fill-opacity:1;fill-rule:nonzero;stroke:none"
         id="path42" /></g></g></svg>
